<?xml version="1.0" encoding="UTF-8" standalone="no"?>
<svg
   width="214.836"
   height="214.842"
   fill="none"
   version="1.1"
   id="svg8"
   sodipodi:docname="Dune_Primary.svg"
   xmlns:inkscape="http://www.inkscape.org/namespaces/inkscape"
   xmlns:sodipodi="http://sodipodi.sourceforge.net/DTD/sodipodi-0.dtd"
   xmlns="http://www.w3.org/2000/svg"
   xmlns:svg="http://www.w3.org/2000/svg">
  <defs
     id="defs12" />
  <sodipodi:namedview
     id="namedview10"
     pagecolor="#ffffff"
     bordercolor="#666666"
     borderopacity="1.0"
     inkscape:showpageshadow="2"
     inkscape:pageopacity="0.0"
     inkscape:pagecheckerboard="0"
     inkscape:deskcolor="#d1d1d1"
     showgrid="false" />
  <path
     d="m 107.3602,212.27897 c 57.962,0 104.95,-46.983 104.95,-104.939 0,-57.956004 -46.988,-104.9390039 -104.95,-104.9390039 -57.961997,0 -104.9499967,46.9819999 -104.9499967,104.9390039 0,57.957 46.9879997,104.939 104.9499967,104.939 z"
     fill="#f06040"
     id="path2" />
  <path
     d="m 168.5812,22.110966 c -16.858,-12.109 -36.929,-18.947 -57.674,-19.6509999 a 104.96,104.96 0 0 0 -58.872997,15.6999999 104.94,104.94 0 0 0 -40.228,45.758 104.93,104.93 0 0 0 -8.0240001,60.394004 c 3.358,20.482 12.7140001,39.508 26.8850001,54.673 a 104.95,104.95 0 0 0 52.732,30.524 104.96,104.96 0 0 0 60.804997,-3.913 104.95,104.95 0 0 0 48.383,-37.032 104.94,104.94 0 0 0 18.332,-78.197004 104.95,104.95 0 0 0 -14.38,-38.338 104.94,104.94 0 0 0 -27.958,-29.918 z"
     fill="#f1603f"
     id="path4" />
  <path
     d="m 20.671203,166.53297 191.581997,-62.573 c 0,0 6.695,65.27 -60.968,99.315 0,0 -33.366,15.991 -69.971997,5.733 0,0 -36.45,-6.88 -60.642,-42.475 z"
     fill="#2b286c"
     id="path6" />
</svg>
